<svg xmlns="http://www.w3.org/2000/svg" viewBox="0 0 320 320"><defs><style>.cls-1{fill:#fff;}</style></defs><title>logoPlan de travail 1</title><g id="Calque_4" data-name="Calque 4"><circle cx="160" cy="160" r="159"/></g><g id="Calque_1" data-name="Calque 1"><path class="cls-1" d="M82.6,256.08a44.83,44.83,0,0,0,3.81,10.29,35.83,35.83,0,0,0,2.82,4.6,30.34,30.34,0,0,0,3.43,4,31.32,31.32,0,0,0,4,3.4c.35.26.69.53,1,.77l1.11.68a19.17,19.17,0,0,0,2.26,1.26,33.63,33.63,0,0,0,9.78,3.11,45.77,45.77,0,0,0,10.34.48,73.84,73.84,0,0,0,10.47-1.42,58.06,58.06,0,0,0,19-7.62,67.08,67.08,0,0,0,15.29-13.58,68.7,68.7,0,0,0,10.42-17.5,42.19,42.19,0,0,0,2.72-9.31q.09-.57.15-1.14c0-.37.07-.76.09-1.2l.13-2.57c.14-1.7.07-3.42.05-5.13a84.93,84.93,0,0,0-3-20.45,109.38,109.38,0,0,0-7.31-19.65q-1.14-2.37-2.38-4.7c-.41-.78-.85-1.54-1.27-2.32l-.67-1.16-.7-1.27-1.42-2.6-1.29-2.64c-.9-1.75-1.62-3.56-2.38-5.35a132.26,132.26,0,0,1-6.76-22,191.6,191.6,0,0,1-3.57-22.41,300.24,300.24,0,0,1-1.09-44.84c.23-3.72.41-7.43.67-11.14s.58-7.41.95-11.1.92-7.4,1.63-11.13a67.11,67.11,0,0,1,3.42-10.65,78.57,78.57,0,0,0-1.63,10.93c-.17,3.6-.23,7.33-.1,11s.26,7.38.38,11.06.38,7.36.57,11a400.84,400.84,0,0,0,4.55,43.61c.31,1.79.58,3.59.92,5.36l1.08,5.32c.33,1.77.79,3.51,1.18,5.27l.62,2.62.7,2.6a135.14,135.14,0,0,0,6.94,20.08c.74,1.58,1.44,3.19,2.25,4.72l1.19,2.31,1.29,2.24.65,1.14.74,1.23c.48.84,1,1.67,1.44,2.52q1.42,2.53,2.73,5.14a119,119,0,0,1,8.27,21.79,95.62,95.62,0,0,1,3.22,23.34c0,2,0,4-.17,5.94l-.21,3c0,.48-.08,1-.16,1.56s-.15,1.07-.24,1.6a43.94,43.94,0,0,1-1.53,6.18c-.61,2-1.43,3.81-2.19,5.67a75.8,75.8,0,0,1-12.9,20,72.88,72.88,0,0,1-18.53,14.8,63,63,0,0,1-22.53,7.27c-7.53.92-15.62,1-23.27-1.1a38.8,38.8,0,0,1-10.82-4.83,24,24,0,0,1-2.41-1.72l-1.16-.9c-.37-.33-.72-.67-1.08-1a29.28,29.28,0,0,1-3.95-4.31,37.53,37.53,0,0,1-5.39-10.11A41.1,41.1,0,0,1,82.6,256.08Z"/><path class="cls-1" d="M86.1,86.42a72.67,72.67,0,0,0-21.94,24.74,70,70,0,0,0-6,15.22,62.78,62.78,0,0,0-2,16,53.72,53.72,0,0,0,8.85,30A58.21,58.21,0,0,0,75.5,184a59.14,59.14,0,0,0,13.19,8.4c9.4,4.44,20,6.59,30,5.27a41.49,41.49,0,0,0,7.27-1.63,64.24,64.24,0,0,0,7.19-2.84,72.12,72.12,0,0,0,13.31-8.1,58.47,58.47,0,0,0,10.76-10.85,85.16,85.16,0,0,1,5.63-7l.87-.92.82-.81c.54-.53,1.09-1.06,1.67-1.58l.88-.79a12.46,12.46,0,0,1,1-.84,20.07,20.07,0,0,1,2.37-1.63,34.23,34.23,0,0,1,9.44-3.74,64.89,64.89,0,0,1,9.16-1.54c1.51-.15,3-.27,4.53-.34l2.08-.08,2-.12c2.65-.2,5.34-.49,8-.86a144.55,144.55,0,0,0,15.89-3,88.07,88.07,0,0,0,15-5c9.41-4.16,17.54-10.59,21.54-19.34,4.16-8.73,4.7-19.41,2.52-29.45a58.76,58.76,0,0,0-5.21-14.51,44.58,44.58,0,0,0-4-6.49c-.39-.5-.71-1.06-1.14-1.53l-1.25-1.44-1.25-1.44c-.44-.46-.92-.88-1.38-1.33a52.49,52.49,0,0,0-12.59-8.94,81.42,81.42,0,0,0-15-5.74,155.63,155.63,0,0,0-16.08-3.55c-2.73-.48-5.49-.91-8.27-1.33-1.39-.23-2.75-.41-4.12-.58s-2.72-.4-4.09-.52a147,147,0,0,0-33.15.09,157.89,157.89,0,0,0-16.51,2.75C131,53.81,125.62,55.31,120.25,57A153.78,153.78,0,0,1,136,50.89,156.6,156.6,0,0,1,152.5,46.6a132,132,0,0,1,16.94-2.34,146.71,146.71,0,0,1,17.17-.34c1.44,0,2.87.18,4.3.27s2.87.21,4.26.35c2.81.27,5.63.54,8.46.87a163.63,163.63,0,0,1,17,2.75,83,83,0,0,1,16.8,5.51,60.11,60.11,0,0,1,15.23,9.88c.57.51,1.16,1,1.71,1.54L256,66.77l1.58,1.69c.54.56,1,1.2,1.45,1.8a54.25,54.25,0,0,1,5.16,7.62,68.07,68.07,0,0,1,6.67,16.94,61.71,61.71,0,0,1,1.81,18.27,51.23,51.23,0,0,1-4.31,18.33c-.34.73-.63,1.48-1,2.19l-1.19,2.1a37.62,37.62,0,0,1-2.67,4c-.45.68-1,1.25-1.51,1.88s-1,1.26-1.57,1.82c-1.12,1.13-2.21,2.31-3.42,3.32a62.06,62.06,0,0,1-15.6,10,78.41,78.41,0,0,1-8.44,3.3c-2.88,1-5.64,1.71-8.49,2.46a154,154,0,0,1-17.22,3.36c-2.9.39-5.81.69-8.77.9l-2.25.13-2.13.08c-1.29,0-2.59.14-3.87.26a54.92,54.92,0,0,0-7.47,1.22,24.25,24.25,0,0,0-6.22,2.35,8.21,8.21,0,0,0-1.11.73,6.13,6.13,0,0,0-.63.5l-.69.61c-.47.41-.94.85-1.41,1.3l-.69.66-.59.61a74.34,74.34,0,0,0-5,6.09c-.89,1.17-1.95,2.37-2.94,3.54s-2.1,2.28-3.21,3.34a71.25,71.25,0,0,1-7,5.94,82.72,82.72,0,0,1-15.65,9.08,69.83,69.83,0,0,1-8.56,3.15,53.08,53.08,0,0,1-9.22,1.78,57.87,57.87,0,0,1-18.37-1.12,69.86,69.86,0,0,1-17-6.21,64.6,64.6,0,0,1-26.07-24.31,60.23,60.23,0,0,1-8.06-34.3,68.15,68.15,0,0,1,11-32.77,69.18,69.18,0,0,1,24.78-23Z"/></g></svg>